<svg xmlns="http://www.w3.org/2000/svg" viewBox="0 0 1440 800" fill="none" aria-hidden="true"><defs><linearGradient id="g" x1="0" y1="0" x2="1440" y2="800" gradientUnits="userSpaceOnUse"><stop stop-color="currentColor" stop-opacity="0.08"/><stop offset="1" stop-color="currentColor" stop-opacity="0.02"/></linearGradient><style>.l{stroke:var(--hero-grid-stroke,currentColor)}.n{fill:var(--hero-grid-node,currentColor)}</style></defs><g opacity=".9"><path class="l" d="M0 80H1440M0 160H1440M0 240H1440M0 320H1440M0 400H1440M0 480H1440M0 560H1440M0 640H1440M0 720H1440" stroke="url(#g)" stroke-width="1" vector-effect="non-scaling-stroke"/><path class="l" d="M120 0V800M240 0V800M360 0V800M480 0V800M600 0V800M720 0V800M840 0V800M960 0V800M1080 0V800M1200 0V800M1320 0V800" stroke="currentColor" stroke-opacity=".06" stroke-width="1" vector-effect="non-scaling-stroke"/><path class="l" d="M0 120 1440 760M0 240 1200 800M240 0 1440 560M0 560 1200 0M240 800 1440 240" stroke="currentColor" stroke-opacity=".05" stroke-width="1" vector-effect="non-scaling-stroke"/><path class="l" d="M0 720 360 360 720 720 1080 360 1440 720" stroke="currentColor" stroke-opacity=".06" stroke-width="1" vector-effect="non-scaling-stroke"/><path class="l" d="M0 360 360 0 720 360 1080 0 1440 360" stroke="currentColor" stroke-opacity=".05" stroke-width="1" vector-effect="non-scaling-stroke"/><circle class="n" cx="120" cy="80" r="2.2" opacity=".35"/><circle class="n" cx="360" cy="160" r="2" opacity=".3"/><circle class="n" cx="600" cy="240" r="2.4" opacity=".28"/><circle class="n" cx="840" cy="120" r="2.1" opacity=".26"/><circle class="n" cx="1080" cy="200" r="2.3" opacity=".3"/><circle class="n" cx="1320" cy="280" r="2" opacity=".24"/><circle class="n" cx="240" cy="440" r="2.2" opacity=".34"/><circle class="n" cx="480" cy="520" r="2.5" opacity=".28"/><circle class="n" cx="720" cy="400" r="2.3" opacity=".36"/><circle class="n" cx="960" cy="480" r="2.1" opacity=".26"/><circle class="n" cx="1200" cy="560" r="2.4" opacity=".3"/><circle class="n" cx="360" cy="680" r="2.2" opacity=".27"/><circle class="n" cx="840" cy="640" r="2.5" opacity=".32"/><circle class="n" cx="1080" cy="720" r="2.1" opacity=".25"/><circle class="n" cx="1320" cy="640" r="2.3" opacity=".29"/></g></svg>