<svg xmlns="http://www.w3.org/2000/svg" viewBox="0 0 320 72" role="img" aria-labelledby="title">
  <title>Session 97</title>
  <g fill="currentColor">
    <path d="M32 16c-8.8 0-16 7.2-16 16s7.2 16 16 16h16c2.2 0 4 1.8 4 4s-1.8 4-4 4H20v8h24c8.8 0 16-7.2 16-16S52.8 32 44 32H28c-2.2 0-4-1.8-4-4s1.8-4 4-4h24v-8H32Z"/>
    <path d="M92 16c-13.3 0-24 10.7-24 24s10.7 24 24 24h16v-8H92c-8.8 0-16-7.2-16-16s7.2-16 16-16h16v-8H92Z"/>
    <path d="M132 16v48h8V44h20v-8h-20V24h24v-8h-32Z"/>
    <path d="M208 16v48h8V24h16v-8h-24Z"/>
    <path d="M252 16v48h8V16h-8Z"/>
    <path d="M280 16v8h20l-22 40h10l22-40V16h-30Z"/>
    <path d="M172 16c-13.3 0-24 10.7-24 24s10.7 24 24 24 24-10.7 24-24-10.7-24-24-24Zm0 8c8.8 0 16 7.2 16 16s-7.2 16-16 16-16-7.2-16-16 7.2-16 16-16Z"/>
  </g>
</svg>